
nColumns=19
nRows=103
DataType=double
version=3
OpenSimVersion=4.4-2022-10-11-798caa840
endheader
time	ground_force_calcn_r_vx	ground_force_calcn_r_vy	ground_force_calcn_r_vz	ground_force_calcn_r_px	ground_force_calcn_r_py	ground_force_calcn_r_pz	ground_force_calcn_r_mx	ground_force_calcn_r_my	ground_force_calcn_r_mz	ground_force_calcn_l_vx	ground_force_calcn_l_vy	ground_force_calcn_l_vz	ground_force_calcn_l_px	ground_force_calcn_l_py	ground_force_calcn_l_pz	ground_force_calcn_l_mx	ground_force_calcn_l_my	ground_force_calcn_l_mz
0	-103.51	493.222	-7.34942	0.153765	0	-0.170454	-0.162646	0.775007	-0.0115482	0	0	0	0	0	0	0	0	0
0.01	-105.825	510.324	-10.4638	0.15636	0	-0.170184	-0.1732	0.835232	-0.0171258	0	0	0	0	0	0	0	0	0
0.02	-108.024	529.819	-13.666	0.15951	0	-0.169907	-0.184635	0.905564	-0.0233579	0	0	0	0	0	0	0	0	0
0.03	-109.935	551.277	-16.8115	0.162651	0	-0.169688	-0.195561	0.980657	-0.0299057	0	0	0	0	0	0	0	0	0
0.04	-111.366	573.98	-19.7413	0.165684	0	-0.169531	-0.20452	1.0541	-0.0362542	0	0	0	0	0	0	0	0	0
0.05	-112.138	596.966	-22.3119	0.168538	0	-0.169438	-0.210049	1.11819	-0.0417929	0	0	0	0	0	0	0	0	0
0.06	-112.104	619.144	-24.4349	0.171179	0	-0.169396	-0.210789	1.16417	-0.0459445	0	0	0	0	0	0	0	0	0
0.07000000000000001	-111.164	639.404	-26.0829	0.173608	0	-0.169384	-0.205927	1.18447	-0.0483175	0	0	0	0	0	0	0	0	0
0.08	-109.283	656.7430000000001	-27.2801	0.175851	0	-0.169378	-0.195371	1.1741	-0.0487703	0	0	0	0	0	0	0	0	0
0.09	-106.488	670.393	-28.0849	0.177948	0	-0.169355	-0.179644	1.13094	-0.0473788	0	0	0	0	0	0	0	0	0
0.1	-102.859	679.896	-28.565	0.179946	0	-0.1693	-0.159738	1.05587	-0.0443609	0	0	0	0	0	0	0	0	0
0.11	-98.50060000000001	685.103	-28.7818	0.181889	0	-0.169197	-0.136865	0.951939	-0.0399918	0	0	0	0	0	0	0	0	0
0.12	-93.53230000000001	686.126	-28.7862	0.183811	0	-0.169041	-0.112255	0.823474	-0.0345486	0	0	0	0	0	0	0	0	0
0.13	-88.0779	683.271	-28.6194	0.185744	0	-0.168824	-0.0870165	0.675037	-0.0282745	0	0	0	0	0	0	0	0	0
0.14	-82.26130000000001	676.9640000000001	-28.3124	0.187714	0	-0.168543	-0.0620634	0.510747	-0.0213608	0	0	0	0	0	0	0	0	0
0.15	-76.2011	667.708	-27.8865	0.189741	0	-0.168197	-0.0381012	0.333859	-0.0139435	0	0	0	0	0	0	0	0	0
0.16	-70.0091	656.043	-27.3543	0.191844	0	-0.167789	-0.0156525	0.146677	-0.00611581	0	0	0	0	0	0	0	0	0
0.17	-63.7896	642.533	-26.7221	0.194037	0	-0.167323	0.00489038	-0.0492593	0.00204862	0	0	0	0	0	0	0	0	0
0.18	-57.638	627.759	-25.9958	0.196334	0	-0.166805	0.0231999	-0.25268	0.0104636	0	0	0	0	0	0	0	0	0
0.19	-51.6391	612.3049999999999	-25.1859	0.198745	0	-0.166245	0.0389535	-0.461887	0.0189988	0	0	0	0	0	0	0	0	0
0.2	-45.864	596.7380000000001	-24.3102	0.201276	0	-0.165651	0.0518227	-0.6742669999999999	0.0274686	0	0	0	0	0	0	0	0	0
0.21	-40.3693	581.586	-23.3952	0.203931	0	-0.165033	0.0615216	-0.886319	0.0356535	0	0	0	0	0	0	0	0	0
0.22	-35.1966	567.313	-22.4748	0.206705	0	-0.164395	0.06787360000000001	-1.09402	0.0433408	0	0	0	0	0	0	0	0	0
0.23	-30.3729	554.301	-21.5891	0.209592	0	-0.163748	0.0708632	-1.29324	0.0503697	0	0	0	0	0	0	0	0	0
0.24	-25.9105	542.8440000000001	-20.781	0.212579	0	-0.163092	0.0706542	-1.48026	0.0566667	0	0	0	0	0	0	0	0	0
0.25	-21.809	533.146	-20.0921	0.215647	0	-0.16243	0.0675814	-1.6521	0.0622611	0	0	0	0	0	0	0	0	0
0.26	-18.0576	525.327	-19.5576	0.218779	0	-0.16176	0.0621129	-1.80697	0.0672724	0	0	0	0	0	0	0	0	0
0.27	-14.6368	519.429	-19.2005	0.221951	0	-0.161085	0.0547867	-1.94427	0.07186919999999999	0	0	0	0	0	0	0	0	0
0.28	-11.5198	515.4299999999999	-19.0305	0.225142	0	-0.160404	0.0461401	-2.06444	0.0762225	0	0	0	0	0	0	0	0	0
0.29	-8.671480000000001	513.254	-19.0438	0.228329	0	-0.159721	0.0366415	-2.16876	0.08046970000000001	0	0	0	0	0	0	0	0	0
0.3	-6.04867	512.789	-19.2295	0.231489	0	-0.159042	0.0266458	-2.25895	0.08471040000000001	0	0	0	0	0	0	0	0	0
0.31	-3.60307	513.888	-19.5752	0.234603	0	-0.158372	0.0163846	-2.33686	0.08901630000000001	0	0	0	0	0	0	0	0	0
0.32	-1.28412	516.38	-20.0688	0.237653	0	-0.157718	0.00597893	-2.40429	0.0934411	0	0	0	0	0	0	0	0	0
0.33	0.959873	520.073	-20.6992	0.240626	0	-0.157085	-0.00454585	-2.46301	0.0980289	0	0	0	0	0	0	0	0	0
0.34	3.18145	524.769	-21.454	0.243514	0	-0.156476	-0.0152465	-2.51485	0.102814	0	0	0	0	0	0	0	0	0
0.35	5.43356	530.277	-22.3189	0.246315	0	-0.155894	-0.0262493	-2.56175	0.107821	0	0	0	0	0	0	0	0	0
0.36	7.76976	536.425	-23.2763	0.249024	0	-0.155339	-0.0377431	-2.60579	0.113069	0	0	0	0	0	0	0	0	0
0.37	10.2423	543.062	-24.3076	0.251645	0	-0.15481	-0.0499616	-2.64904	0.118572	0	0	0	0	0	0	0	0	0
0.38	12.8999	550.0650000000001	-25.395	0.254181	0	-0.154306	-0.0631586	-2.69315	0.124335	0	0	0	0	0	0	0	0	0
0.39	15.7858	557.338	-26.5239	0.256636	0	-0.153819	-0.0775749	-2.73889	0.130344	0	0	0	0	0	0	0	0	0
0.4	18.936	564.806	-27.6836	0.259014	0	-0.153349	-0.0934009	-2.78588	0.136548	0	0	0	0	0	0	0	0	0
0.41	22.3791	572.4059999999999	-28.8665	0.261316	0	-0.15289	-0.110739	-2.83245	0.142841	0	0	0	0	0	0	0	0	0
0.42	26.137	580.077	-30.0658	0.263544	0	-0.152436	-0.129576	-2.87576	0.149053	0	0	0	0	0	0	0	0	0
0.43	30.2243	587.745	-31.2719	0.265691	0	-0.151988	-0.149762	-2.91229	0.154953	0	0	0	0	0	0	0	0	0
0.44	34.6466	595.321	-32.47	0.267753	0	-0.151544	-0.171001	-2.93826	0.160259	0	0	0	0	0	0	0	0	0
0.45	39.3977	602.683	-33.6384	0.269721	0	-0.151104	-0.192838	-2.94993	0.164649	0	0	0	0	0	0	0	0	0
0.46	44.4565	609.667	-34.7498	0.271591	0	-0.15067	-0.214657	-2.94377	0.167789	0	0	0	0	0	0	0	0	0
0.47	49.7847	616.064	-35.7719	0.27336	0	-0.150241	-0.235694	-2.91661	0.169354	0	0	0	0	0	0	0	0	0
0.48	55.3277	621.616	-36.6681	0.275027	0	-0.149817	-0.255093	-2.86601	0.169061	0	0	0	0	0	0	0	0	0
0.49	61.0157	626.018	-37.3982	0.276594	0	-0.149399	-0.271991	-2.79062	0.166711	0	0	0	0	0	0	0	0	0
0.5	66.7637	628.915	-37.9196	0.278069	0	-0.148982	-0.285616	-2.69051	0.162221	0	0	0	0	0	0	0	0	0
0.51	72.4712	629.9160000000001	-38.1875	0.279458	0	-0.148565	-0.295351	-2.56717	0.15563	0	0	0	0	0	0	0	0	0
0.52	78.02290000000001	628.606	-38.1575	0.280775	0	-0.148148	-0.300803	-2.42347	0.147109	0	0	0	0	0	0	0	0	0
0.53	83.2899	624.564	-37.7897	0.282032	0	-0.147727	-0.301821	-2.26326	0.13694	-1.62397	27.646	-6.72917	0.70786	0	-0.254486	0.00525835	-0.0895166	0.0217888
0.54	88.129	617.386	-37.0533	0.283246	0	-0.147301	-0.298472	-2.09094	0.125491	-4.3815	48.6573	-7.38288	0.746879	0	-0.271726	-0.00610233	0.0677673	-0.0102825
0.55	92.3839	606.7089999999999	-35.9315	0.284435	0	-0.146872	-0.290996	-1.91104	0.113179	-8.11299	74.70399999999999	-7.92894	0.765936	0	-0.27981	-0.0155455	0.143142	-0.0151928
0.5600000000000001	95.88800000000001	592.231	-34.426	0.285619	0	-0.146437	-0.279763	-1.72789	0.100441	-12.9521	105.97	-8.2798	0.777692	0	-0.284416	-0.0227636	0.186244	-0.0145519
0.57	98.47069999999999	573.734	-32.5579	0.286823	0	-0.146003	-0.26527	-1.54558	0.0877076	-19.0067	142.328	-8.325889999999999	0.7860200000000001	0	-0.287372	-0.0286402	0.214467	-0.0125459
0.58	99.96639999999999	551.105	-30.3661	0.288068	0	-0.145567	-0.248144	-1.36799	0.07537720000000001	-26.3233	183.284	-7.93856	0.792527	0	-0.289444	-0.0338141	0.235441	-0.0101976
0.59	100.227	524.359	-27.9061	0.28938	0	-0.145137	-0.229142	-1.1988	0.0637997	-34.8098	228.028	-6.97703	0.797994	0	-0.291012	-0.0386767	0.25336	-0.00775209
0.6	99.1365	493.662	-25.2466	0.290784	0	-0.144714	-0.209091	-1.0412	0.0532483	-44.2077	275.482	-5.30268	0.802834	0	-0.292284	-0.0434428	0.270715	-0.00521092
0.61	96.6242	459.347	-22.4676	0.292304	0	-0.144299	-0.188793	-0.897515	0.0438994	-54.1382	324.32	-2.81019	0.807271	0	-0.293381	-0.0480731	0.287987	-0.00249536
0.62	92.6797	421.915	-19.6566	0.293963	0	-0.143892	-0.168904	-0.768917	0.035823	-64.15770000000001	373.033	0.523596	0.811425	0	-0.294365	-0.0519579	0.302099	0.000424032
0.63	87.3601	382.039	-16.9007	0.295788	0	-0.143487	-0.149857	-0.655349	0.0289914	-73.8036	420.075	4.60041	0.815367	0	-0.295265	-0.0536874	0.305578	0.00334651
0.64	80.7941	340.542	-14.2776	0.297809	0	-0.143081	-0.131854	-0.5557569999999999	0.0233007	-82.6392	464.085	9.20688	0.819128	0	-0.296087	-0.051484	0.289124	0.00573586
0.65	73.1828	298.368	-11.8481	0.300064	0	-0.142669	-0.114896	-0.468434	0.0186013	-90.30759999999999	504.061	14.0745	0.82273	0	-0.296831	-0.0442825	0.247168	0.00690147
0.66	64.7938	256.521	-9.65199	0.3026	0	-0.142238	-0.0988694	-0.391427	0.014728	-96.5776	539.4400000000001	18.932	0.826192	0	-0.297499	-0.0322051	0.179884	0.00631315
0.67	55.9495	215.998	-7.70904	0.305481	0	-0.141776	-0.0836655	-0.322999	0.0115279	-101.335	570.03	23.5107	0.82953	0	-0.298088	-0.0160464	0.09026389999999999	0.00372291
0.68	47.0001	177.708	-6.0223	0.308801	0	-0.14125	-0.069262	-0.261881	0.0088748	-104.546	595.856	27.5669	0.832754	0	-0.2986	0.00292148	-0.0166508	-0.000770339
0.6899999999999999	38.2876	142.403	-4.58196	0.31271	0	-0.140616	-0.0557198	-0.207239	0.00666811	-106.237	617.035	30.9332	0.835871	0	-0.299039	0.0228905	-0.132951	-0.00666509
0.7	30.1126	110.644	-3.36815	0.317477	0	-0.139794	-0.0431794	-0.158656	0.0048297	-106.482	633.694	33.5374	0.838896	0	-0.299419	0.0419658	-0.249747	-0.0132175
0.71	22.7146	82.7863	-2.3543	0.323592	0	-0.138654	-0.031838	-0.116038	0.00329991	-105.403	645.951	35.3929	0.841839	0	-0.299754	0.0585925	-0.359076	-0.0196745
0.72	16.2612	58.9777	-1.51142	0.332051	0	-0.13694	-0.0219716	-0.0796887	0.00204219	-103.162	653.953	36.5762	0.844724	0	-0.300064	0.0716889	-0.45444	-0.0254173
0.73	10.838	39.1799	-0.8145559999999999	0.345123	0	-0.13409	-0.0140269	-0.0507079	0.00105423	-99.9439	657.928	37.1938	0.847573	0	-0.300365	0.0806925	-0.531197	-0.0300294
0.74	6.44531	23.2021	-0.246722	0.369299	0	-0.128536	-0.0090569	-0.0326034	0.000346692	-95.94159999999999	658.2190000000001	37.3533	0.850411	0	-0.300675	0.0854621	-0.586323	-0.0332733
0.75	0	0	0	0	0	0	0	0	0	-91.34480000000001	655.282	37.1437	0.853258	0	-0.301002	0.0861167	-0.617777	-0.0350177
0.76	0	0	0	0	0	0	0	0	0	-86.3254	649.655	36.6261	0.856132	0	-0.301353	0.0829001	-0.623877	-0.0351728
0.77	0	0	0	0	0	0	0	0	0	-81.0305	641.91	35.8376	0.859038	0	-0.301731	0.076101	-0.602859	-0.0336574
0.78	0	0	0	0	0	0	0	0	0	-75.5818	632.621	34.7999	0.86198	0	-0.302137	0.0660458	-0.552804	-0.0304092
0.79	0	0	0	0	0	0	0	0	0	-70.0783	622.324	33.5327	0.8649520000000001	0	-0.30257	0.0531377	-0.471884	-0.0254266
0.8	0	0	0	0	0	0	0	0	0	-64.6019	611.503	32.0662	0.867946	0	-0.303029	0.0379271	-0.359007	-0.0188257
0.8100000000000001	0	0	0	0	0	0	0	0	0	-59.2229	600.582	30.4491	0.870951	0	-0.303517	0.0211483	-0.214466	-0.0108733
0.82	0	0	0	0	0	0	0	0	0	-54.0026	589.929	28.7496	0.873963	0	-0.304034	0.00369939	-0.0404124	-0.00196946
0.83	0	0	0	0	0	0	0	0	0	-48.9952	579.851	27.0489	0.8769749999999999	0	-0.304583	-0.0134464	0.159137	0.00742339
0.84	0	0	0	0	0	0	0	0	0	-44.2455	570.605	25.4304	0.879986	0	-0.305166	-0.0293551	0.378574	0.0168721
0.85	0	0	0	0	0	0	0	0	0	-39.7854	562.4	23.969	0.8829939999999999	0	-0.305784	-0.0432422	0.6112649999999999	0.0260516
0.86	0	0	0	0	0	0	0	0	0	-35.6316	555.398	22.7215	0.885995	0	-0.306436	-0.0545518	0.850311	0.0347865
0.87	0	0	0	0	0	0	0	0	0	-31.7835	549.717	21.7209	0.888982	0	-0.307113	-0.0629826	1.08933	0.0430424
0.88	0	0	0	0	0	0	0	0	0	-28.223	545.433	20.9745	0.891943	0	-0.307804	-0.0684587	1.32302	0.0508765
0.89	0	0	0	0	0	0	0	0	0	-24.9178	542.585	20.4676	0.894862	0	-0.308492	-0.0710619	1.54737	0.0583706
0.9	0	0	0	0	0	0	0	0	0	-21.8255	541.169	20.1689	0.897722	0	-0.309161	-0.0709625	1.75954	0.0655765
0.91	0	0	0	0	0	0	0	0	0	-18.8998	541.133	20.0384	0.900508	0	-0.309793	-0.0683768	1.95774	0.072496
0.92	0	0	0	0	0	0	0	0	0	-16.0952	542.374	20.0343	0.903208	0	-0.310375	-0.0635371	2.14106	0.07908709999999999
0.93	0	0	0	0	0	0	0	0	0	-13.3696	544.746	20.119	0.905813	0	-0.310897	-0.0566751	2.30923	0.0852865
0.9399999999999999	0	0	0	0	0	0	0	0	0	-10.6864	548.071	20.2636	0.908324	0	-0.311355	-0.0480118	2.46237	0.09103990000000001
0.95	0	0	0	0	0	0	0	0	0	-8.014749999999999	552.1559999999999	20.4507	0.910743	0	-0.311749	-0.0377477	2.60053	0.0963185
0.96	0	0	0	0	0	0	0	0	0	-5.32806	556.801	20.6754	0.9130740000000001	0	-0.312082	-0.0260609	2.72345	0.101129
0.97	0	0	0	0	0	0	0	0	0	-2.60225	561.807	20.9436	0.915324	0	-0.312361	-0.0131099	2.83034	0.105512
0.98	0	0	0	0	0	0	0	0	0	0.186335	566.986	21.2698	0.917499	0	-0.312593	0.000959591	2.91987	0.109536
0.99	0	0	0	0	0	0	0	0	0	3.06129	572.1609999999999	21.673	0.919606	0	-0.312789	0.0159991	2.99027	0.113269
1	0	0	0	0	0	0	0	0	0	6.04454	577.187	22.1724	0.9216490000000001	0	-0.312958	0.0318307	3.03948	0.116761
1.01	0	0	0	0	0	0	0	0	0	9.15401	581.948	22.7842	0.92363	0	-0.313109	0.0482223	3.06564	0.120024
1.02	0	0	0	0	0	0	0	0	0	12.4031	586.366	23.5183	0.925552	0	-0.313248	0.06487999999999999	3.06726	0.123023
